<?xml version="1.0" encoding="UTF-8"?>
<svg id="Layer_1" xmlns="http://www.w3.org/2000/svg" version="1.1" xmlns:c2pa="http://c2pa.org/manifest" viewBox="0 0 648.1 289.96">
  <!-- Generator: Adobe Illustrator 30.5.1, SVG Export Plug-In . SVG Version: 2.1.4 Build 3)  -->
  <defs>
    <style>
      .st0 {
        fill: #8cc63f;
      }

      .st1, .st2 {
        fill: #fff;
      }

      .st3, .st2 {
        isolation: isolate;
      }

      .st2 {
        font-family: ArialMT, Arial;
        font-size: 24px;
      }
    </style>
  </defs>
  <text class="st2" transform="translate(0 109.98)"><tspan x="0" y="0">xava</tspan></text>
  <g class="st3">
    <text class="st2" transform="translate(61.38 237.98)"><tspan x="0" y="0">.</tspan></text>
  </g>
  <g class="st3">
    <path class="st1" d="M62.97,84.8l-13.56,24.26H2.81l36.1-56.73L.9,1.34h47.37l18.14,24.45L80.16,1.34h46.6l-37.24,55.39,38.96,52.33h-47.37l-18.14-24.26Z"/>
    <path class="st1" d="M176.81,0c14.32,0,24.64,6.3,29.79,16.04V1.34h42.21v107.72h-42.21v-14.71c-5.16,9.74-15.47,16.04-29.79,16.04-24.83,0-44.5-20.44-44.5-55.2S151.98,0,176.81,0ZM190.94,37.05c-8.79,0-15.66,6.3-15.66,18.14s6.88,18.14,15.66,18.14,15.66-6.3,15.66-18.14-6.88-18.14-15.66-18.14Z"/>
    <path class="st1" d="M305.16,1.34l17.38,67.42L339.73,1.34h45.07l-35.91,107.72h-52.91L260.09,1.34h45.07Z"/>
    <path class="st1" d="M434.85,0c14.32,0,24.64,6.3,29.79,16.04V1.34h42.21v107.72h-42.21v-14.71c-5.16,9.74-15.47,16.04-29.79,16.04-24.83,0-44.5-20.44-44.5-55.2S410.02,0,434.85,0ZM448.98,37.05c-8.79,0-15.66,6.3-15.66,18.14s6.88,18.14,15.66,18.14,15.66-6.3,15.66-18.14-6.88-18.14-15.66-18.14Z"/>
  </g>
  <g class="st3">
    <g class="st3">
      <path class="st1" d="M49.22,128c14.32,0,24.64,6.3,29.79,16.04v-14.71h42.21v105.81c0,28.46-14.71,54.82-55.01,54.82-35.14,0-55.58-17.76-58.44-45.08h41.64c1.15,5.54,5.92,8.4,13.75,8.4,8.59,0,15.85-3.06,15.85-18.14v-12.8c-5.16,9.74-15.47,16.04-29.79,16.04-24.83,0-44.5-20.44-44.5-55.2s19.67-55.2,44.5-55.2ZM63.36,165.05c-8.79,0-15.66,6.3-15.66,18.14s6.88,18.14,15.66,18.14,15.66-6.3,15.66-18.14-6.88-18.14-15.66-18.14Z"/>
      <path class="st1" d="M182.73,237.06h-42.4v-107.72h42.4v19.86c8.4-12.03,21.39-20.63,35.33-20.63v45.27h-12.03c-15.28,0-23.3,4.39-23.3,19.1v44.12Z"/>
      <path class="st1" d="M280.71,238.39c-32.47,0-56.92-20.82-56.92-55.2s24.45-55.2,56.92-55.2,56.92,20.82,56.92,55.2-24.45,55.2-56.92,55.2ZM280.71,201.72c7.45,0,13.94-5.73,13.94-18.53s-6.49-18.53-13.94-18.53-13.94,5.73-13.94,18.53,6.3,18.53,13.94,18.53Z"/>
      <path class="st1" d="M465.02,237.06h-42.4v-16.43c-6.11,9.36-16.81,17.19-33.04,17.19-24.83,0-39.34-18.14-39.34-46.03v-62.46h42.21v57.11c0,10.31,5.92,16.62,15.09,16.62s15.09-6.3,15.09-16.62v-57.11h42.4v107.72Z"/>
      <path class="st1" d="M556.13,128c24.83,0,44.5,20.44,44.5,55.2s-19.67,55.2-44.5,55.2c-14.33,0-24.45-6.3-29.6-16.04v66.28h-42.4v-159.29h42.4v14.71c5.16-9.74,15.28-16.04,29.6-16.04ZM541.99,165.05c-8.79,0-15.66,6.3-15.66,18.14s6.88,18.14,15.66,18.14,15.66-6.3,15.66-18.14-6.88-18.14-15.66-18.14Z"/>
    </g>
    <g class="st3">
      <path class="st0" d="M623.84,238.58c-15.09,0-24.45-9.17-24.45-20.82s9.36-21.2,24.45-21.2,24.26,9.36,24.26,21.2-9.36,20.82-24.26,20.82Z"/>
    </g>
  </g>
</svg>